<svg id="eZ1mJQt4wBR1"
	xmlns="http://www.w3.org/2000/svg"
	xmlns:xlink="http://www.w3.org/1999/xlink" viewBox="0 0 798 620" shape-rendering="geometricPrecision" text-rendering="geometricPrecision">
</script>
	<path d="M168,86l-10-7c0,0,65.877-26,234-26s233,26,233,26l-17,9c0,0-87.695,18-214,18s-226-20-226-20Z" clip-rule="evenodd" fill="#767676" fill-rule="evenodd" stroke-linejoin="round" stroke-miterlimit="2"></path>
	<g clip-rule="evenodd">
		<g transform="matrix(1 0 0 1.96774-4-96.0968)" clip-rule="evenodd">
			<ellipse rx="215" ry="15.5" transform="translate(394 105.5)" clip-rule="evenodd" fill="#e3a900" fill-rule="evenodd" stroke-linejoin="round" stroke-miterlimit="2"></ellipse>
		</g>
		<g transform="translate(-6 2)" clip-rule="evenodd">
			<g id="eZ1mJQt4wBR7_ts" transform="translate(350,97) scale(1.506386,1.506386)">
				<circle id="eZ1mJQt4wBR7" r="6" transform="translate(0,0)" opacity="0.4" clip-rule="evenodd" fill="#ffd600" fill-rule="evenodd" stroke-linejoin="round" stroke-miterlimit="2"></circle>
			</g>
		</g>
		<g transform="translate(31-7)" clip-rule="evenodd">
			<g id="eZ1mJQt4wBR9_ts" transform="translate(350,97) scale(1,1)">
				<circle id="eZ1mJQt4wBR9" r="6" transform="translate(0,0)" opacity="0" clip-rule="evenodd" fill="#ffd600" fill-rule="evenodd" stroke-linejoin="round" stroke-miterlimit="2"></circle>
			</g>
		</g>
		<g transform="translate(-45 0)" clip-rule="evenodd">
			<g id="eZ1mJQt4wBR11_ts" transform="translate(350,97) scale(1,1)">
				<circle id="eZ1mJQt4wBR11" r="6" transform="translate(0,0)" opacity="0.7" clip-rule="evenodd" fill="#ffd600" fill-rule="evenodd" stroke-linejoin="round" stroke-miterlimit="2"></circle>
			</g>
		</g>
		<g transform="translate(70 0)" clip-rule="evenodd">
			<g id="eZ1mJQt4wBR13_ts" transform="translate(350,97) scale(1,1)">
				<circle id="eZ1mJQt4wBR13" r="6" transform="translate(0,0)" opacity="0" clip-rule="evenodd" fill="#ffd600" fill-rule="evenodd" stroke-linejoin="round" stroke-miterlimit="2"></circle>
			</g>
		</g>
		<g transform="translate(100-6)" clip-rule="evenodd">
			<g id="eZ1mJQt4wBR15_ts" transform="translate(350,97) scale(1,1)">
				<circle id="eZ1mJQt4wBR15" r="6" transform="translate(0,0)" clip-rule="evenodd" fill="#ffd600" fill-rule="evenodd" stroke-linejoin="round" stroke-miterlimit="2"></circle>
			</g>
		</g>
		<g transform="translate(-20-13)" clip-rule="evenodd">
			<g id="eZ1mJQt4wBR17_ts" transform="translate(350,97) scale(1,1)">
				<circle id="eZ1mJQt4wBR17" r="6" transform="translate(0,0)" opacity="0" clip-rule="evenodd" fill="#ffd600" fill-rule="evenodd" stroke-linejoin="round" stroke-miterlimit="2"></circle>
			</g>
		</g>
		<g transform="translate(-85-7)" clip-rule="evenodd">
			<g id="eZ1mJQt4wBR19_ts" transform="translate(350,97) scale(1,1)">
				<circle id="eZ1mJQt4wBR19" r="6" transform="translate(0,0)" clip-rule="evenodd" fill="#ffd600" fill-rule="evenodd" stroke-linejoin="round" stroke-miterlimit="2"></circle>
			</g>
		</g>
		<g transform="translate(141-7)" clip-rule="evenodd">
			<g id="eZ1mJQt4wBR21_ts" transform="translate(350,97) scale(1.500033,1.500033)">
				<circle id="eZ1mJQt4wBR21" r="6" transform="translate(0,0)" opacity="0.35" clip-rule="evenodd" fill="#ffd600" fill-rule="evenodd" stroke-linejoin="round" stroke-miterlimit="2"></circle>
			</g>
		</g>
		<g transform="translate(191-5)" clip-rule="evenodd">
			<g id="eZ1mJQt4wBR23_ts" transform="translate(350,97) scale(1,1)">
				<circle id="eZ1mJQt4wBR23" r="6" transform="translate(0,0)" clip-rule="evenodd" fill="#ffd600" fill-rule="evenodd" stroke-linejoin="round" stroke-miterlimit="2"></circle>
			</g>
		</g>
		<g transform="translate(53-17)" clip-rule="evenodd">
			<g id="eZ1mJQt4wBR25_ts" transform="translate(350,97) scale(1,1)">
				<circle id="eZ1mJQt4wBR25" r="6" transform="translate(0,0)" clip-rule="evenodd" fill="#ffd600" fill-rule="evenodd" stroke-linejoin="round" stroke-miterlimit="2"></circle>
			</g>
		</g>
	</g>
	<g clip-rule="evenodd">
		<g clip-rule="evenodd">
			<path d="M187,151L97,95c0,0-15.904-25.026-13-32s15.679-1.694,25,1s70.08,68.12,76,72s2,15,2,15Z" clip-rule="evenodd" fill="#b9b3b3" fill-rule="evenodd" stroke-linejoin="round" stroke-miterlimit="2"></path>
			<path d="M176,136L94,70c0,0,8.556-4.337,15-1s63.626,59.605,67,62s0,5,0,5Z" clip-rule="evenodd" fill="#ccc6c4" fill-rule="evenodd" stroke-linejoin="round" stroke-miterlimit="2"></path>
			<path d="M98,85c0,0-5.033,3.863,2,8s72,47,72,47L98,85Z" clip-rule="evenodd" fill="#a7a29f" fill-rule="evenodd" stroke-linejoin="round" stroke-miterlimit="2"></path>
		</g>
		<g transform="matrix(-1 0 0 1 785.918 0)" clip-rule="evenodd">
			<path d="M187,151L97,95c0,0-15.904-25.026-13-32s15.679-1.694,25,1s70.08,68.12,76,72s2,15,2,15Z" clip-rule="evenodd" fill="#b9b3b3" fill-rule="evenodd" stroke-linejoin="round" stroke-miterlimit="2"></path>
			<path d="M176,136L94,70c0,0,8.556-4.337,15-1s63.626,59.605,67,62s0,5,0,5Z" clip-rule="evenodd" fill="#ccc6c4" fill-rule="evenodd" stroke-linejoin="round" stroke-miterlimit="2"></path>
			<path d="M98,85c0,0-5.033,3.863,2,8s72,47,72,47L98,85Z" clip-rule="evenodd" fill="#a7a29f" fill-rule="evenodd" stroke-linejoin="round" stroke-miterlimit="2"></path>
		</g>
		<g clip-rule="evenodd">
			<path d="M392.643,97.943C543.983,97.943,625.286,79,625.286,79l-17,36c0,0,36.197,395.738,30,406-6.196,10.262-9.875,33.739-24,35-13.072,1.167-50.535,20-222.643,19.019C219.536,576,182.073,557.167,169,556c-14.125-1.261-17.804-24.738-24-35s30-406,30-406L158,79c0,0,83.303,18.943,234.643,18.943Z" clip-rule="evenodd" fill="#b1b1b1" fill-rule="evenodd" stroke-linejoin="round" stroke-miterlimit="2"></path>
			<path d="M394,569.997C222.795,569.997,193,545,193,545s-24.722-2.941-27-37s11-151,11-151l45,132c0,0,4.125,32.523,43,39c34.286,5.712,96.398,14.661,128.349,14.661c31.952,0,93.102-8.949,127.388-14.661c38.875-6.477,43-39,43-39l45-132c0,0,13.278,116.941,11,151-2.277,34.059-27,37-27,37s-27.532,24.997-198.737,24.997Z" clip-rule="evenodd" fill="#989492" fill-rule="evenodd" stroke-linejoin="round" stroke-miterlimit="2"></path>
			<path d="M200,120c0,0,61.052,15.029,192.178,15.029C523.303,135.029,583.37,120,583.37,120s-52.843,40.592-57,52c-4.158,11.408-127.669,296.956-133,325-.649,3.412-1.199.384-1.665-7.566-.492,7.95-1.056,10.978-1.705,7.566-5.332-28.044-128.843-313.592-133-325s-57-52-57-52Z" clip-rule="evenodd" fill="#ccc6c4" fill-rule="evenodd" stroke-linejoin="round" stroke-miterlimit="2"></path>
			<path d="M390.5,112.264C507.25,112.264,570.357,98.775,605,94l-6,19c0,0-108.509,14.052-208.5,14.052s-210.5-14.052-210.5-14.052l-6-19c34.643,4.775,99.75,18.264,216.5,18.264Z" clip-rule="evenodd" fill="#a7a3a0" fill-rule="evenodd" stroke-linejoin="round" stroke-miterlimit="2"></path>
		</g>
	</g>
	<g transform="matrix(.71134 0 0 0.71134 113.155 206.701)" clip-rule="evenodd">
		<ellipse rx="97" ry="92" transform="translate(392 335)" clip-rule="evenodd" fill="#656160" fill-rule="evenodd" stroke-linejoin="round" stroke-miterlimit="2"></ellipse>
		<g transform="matrix(.917526 0 0 0.869565 32.3299 43.6957)" clip-rule="evenodd">
			<ellipse rx="97" ry="92" transform="translate(392 335)" clip-rule="evenodd" fill="#e6dfdd" fill-rule="evenodd" stroke-linejoin="round" stroke-miterlimit="2"></ellipse>
		</g>
		<g clip-rule="evenodd">
			<g transform="matrix(.123022-.090032 0.441997 0.489792 142.526 245.357)" clip-rule="evenodd">
				<path d="M392,335l-84-7v13l84-6Z" clip-rule="evenodd" fill="#656160" fill-rule="evenodd" stroke-linejoin="round" stroke-miterlimit="2"></path>
			</g>
			<g transform="matrix(.142022-.063418 0.311338 0.565439 170.542 198.076)" clip-rule="evenodd">
				<path d="M392,335l-84-7v13l84-6Z" clip-rule="evenodd" fill="#656160" fill-rule="evenodd" stroke-linejoin="round" stroke-miterlimit="2"></path>
			</g>
			<g transform="matrix(.154046-.033688 0.165384 0.613309 209.435 157.514)" clip-rule="evenodd">
				<path d="M392,335l-84-7v13l84-6Z" clip-rule="evenodd" fill="#656160" fill-rule="evenodd" stroke-linejoin="round" stroke-miterlimit="2"></path>
			</g>
			<g transform="matrix(.158502-.002303 0.011306 0.631052 257.295 125.663)" clip-rule="evenodd">
				<path d="M392,335l-84-7v13l84-6Z" clip-rule="evenodd" fill="#656160" fill-rule="evenodd" stroke-linejoin="round" stroke-miterlimit="2"></path>
			</g>
			<g transform="matrix(.155172 0.029195-.143328 0.617795 311.769 104.088)" clip-rule="evenodd">
				<path d="M392,335l-84-7v13l84-6Z" clip-rule="evenodd" fill="#656160" fill-rule="evenodd" stroke-linejoin="round" stroke-miterlimit="2"></path>
			</g>
			<g transform="matrix(.14422 0.059259-.29092 0.574189 370.183 93.8484)" clip-rule="evenodd">
				<path d="M392,335l-84-7v13l84-6Z" clip-rule="evenodd" fill="#656160" fill-rule="evenodd" stroke-linejoin="round" stroke-miterlimit="2"></path>
			</g>
			<g transform="matrix(.126183 0.086412-.424222 0.502378 429.666 95.4479)" clip-rule="evenodd">
				<path d="M392,335l-84-7v13l84-6Z" clip-rule="evenodd" fill="#656160" fill-rule="evenodd" stroke-linejoin="round" stroke-miterlimit="2"></path>
			</g>
			<g transform="matrix(.101947 0.109319-.536684 0.405887 487.297 108.808)" clip-rule="evenodd">
				<path d="M392,335l-84-7v13l84-6Z" clip-rule="evenodd" fill="#656160" fill-rule="evenodd" stroke-linejoin="round" stroke-miterlimit="2"></path>
			</g>
			<g transform="matrix(.072704 0.126857-.622782 0.289458 540.245 133.271)" clip-rule="evenodd">
				<path d="M392,335l-84-7v13l84-6Z" clip-rule="evenodd" fill="#656160" fill-rule="evenodd" stroke-linejoin="round" stroke-miterlimit="2"></path>
			</g>
			<g transform="matrix(.039888 0.138163-.678287 0.15881 585.909 167.637)" clip-rule="evenodd">
				<path d="M392,335l-84-7v13l84-6Z" clip-rule="evenodd" fill="#656160" fill-rule="evenodd" stroke-linejoin="round" stroke-miterlimit="2"></path>
			</g>
			<g transform="matrix(.005114 0.142682-.700472 0.02036 622.045 210.217)" clip-rule="evenodd">
				<path d="M392,335l-84-7v13l84-6Z" clip-rule="evenodd" fill="#656160" fill-rule="evenodd" stroke-linejoin="round" stroke-miterlimit="2"></path>
			</g>
			<g transform="matrix(-.029912 0.140192-.688247-.11909 646.879 258.919)" clip-rule="evenodd">
				<path d="M392,335l-84-7v13l84-6Z" clip-rule="evenodd" fill="#656160" fill-rule="evenodd" stroke-linejoin="round" stroke-miterlimit="2"></path>
			</g>
			<g transform="matrix(-.063468 0.130815-.642213-.252689 659.19 311.351)" clip-rule="evenodd">
				<path d="M392,335l-84-7v13l84-6Z" clip-rule="evenodd" fill="#656160" fill-rule="evenodd" stroke-linejoin="round" stroke-miterlimit="2"></path>
			</g>
			<g transform="matrix(-.093907 0.115012-.564631-.373876 658.373 364.938)" clip-rule="evenodd">
				<path d="M392,335l-84-7v13l84-6Z" clip-rule="evenodd" fill="#656160" fill-rule="evenodd" stroke-linejoin="round" stroke-miterlimit="2"></path>
			</g>
			<g transform="matrix(-.119732 0.093559-.459313-.476696 644.47 417.046)" clip-rule="evenodd">
				<path d="M392,335l-84-7v13l84-6Z" clip-rule="evenodd" fill="#656160" fill-rule="evenodd" stroke-linejoin="round" stroke-miterlimit="2"></path>
			</g>
			<g transform="matrix(-.139676 0.067511-.331431-.5561 618.162 465.116)" clip-rule="evenodd">
				<path d="M392,335l-84-7v13l84-6Z" clip-rule="evenodd" fill="#656160" fill-rule="evenodd" stroke-linejoin="round" stroke-miterlimit="2"></path>
			</g>
			<g transform="matrix(-.152759 0.038145-.187268-.608186 580.742 506.787)" clip-rule="evenodd">
				<path d="M392,335l-84-7v13l84-6Z" clip-rule="evenodd" fill="#656160" fill-rule="evenodd" stroke-linejoin="round" stroke-miterlimit="2"></path>
			</g>
			<g transform="matrix(-.158337 0.006906-.033906-.630395 534.049 540.012)" clip-rule="evenodd">
				<path d="M392,335l-84-7v13l84-6Z" clip-rule="evenodd" fill="#656160" fill-rule="evenodd" stroke-linejoin="round" stroke-miterlimit="2"></path>
			</g>
			<g transform="matrix(-.156137-.024672 0.121122-.621637 480.376 563.158)" clip-rule="evenodd">
				<path d="M392,335l-84-7v13l84-6Z" clip-rule="evenodd" fill="#656160" fill-rule="evenodd" stroke-linejoin="round" stroke-miterlimit="2"></path>
			</g>
			<g transform="matrix(-.146267-.055038 0.2702-.582342 422.359 575.089)" clip-rule="evenodd">
				<path d="M392,335l-84-7v13l84-6Z" clip-rule="evenodd" fill="#656160" fill-rule="evenodd" stroke-linejoin="round" stroke-miterlimit="2"></path>
			</g>
			<g transform="matrix(-.129213-.082701 0.406004-.51444 362.849 575.219)" clip-rule="evenodd">
				<path d="M392,335l-84-7v13l84-6Z" clip-rule="evenodd" fill="#656160" fill-rule="evenodd" stroke-linejoin="round" stroke-miterlimit="2"></path>
			</g>
		</g>
		<g transform="matrix(1.40291-.090066 0.090066 1.40291-198.02-253.989)" clip-rule="evenodd">
			<path d="M413.148,425.003l-68.529,50.783l74.38-42.712-5.851-8.071Z" clip-rule="evenodd" fill="#d30000" fill-rule="evenodd" stroke-linejoin="round" stroke-miterlimit="2"></path>
		</g>
		<g transform="matrix(2.44391 0 0 2.15513-569.588-390.12)" clip-rule="evenodd">
			<circle r="3.463" transform="translate(393.463 336.463)" clip-rule="evenodd" fill="#656160" fill-rule="evenodd" stroke-linejoin="round" stroke-miterlimit="2"></circle>
		</g>
	</g>
</svg>